Godzilla.Vs.Mothra.1964.XviD-NvadR 
http://www.imdb.com/title/tt0058379/

A typhoon looses a colossal egg from Infant Island and deposits
 it on a Japanese beach, in an area planned for future development. 
 A pair of reporters (Akira Takarada and Yuriko Hoshi) is on the 
 scene when a promoter declares the egg to be his private property 
 and announces a theme park to be built around it.
 
But Godzilla has  been washed ashore in the typhoon and emerges 
 from the earth to  raise havoc. The reporters and professor Miura (Hiroshi Koizumi)  travel to Infant Island to ask the fairy 
princesses to dispatch  Mothra to protect Japan. The aged Mothra 
fights to protect her egg  and, after a struggle, succumbs to 
Godzilla's radioactive breath.  But the egg hatches, disgorging 
two colossal Mothra larvae to  continue the struggle.

--------------- SCREENSHOTS ---------------- 
http://www.postimg.com/41000/photo-40212.jpg
 
http://www.postimg.com/41000/photo-40213.jpg
 
http://www.postimg.com/41000/photo-40214.jpg
 
http://www.postimg.com/41000/photo-40215.jpg
 
http://www.postimg.com/41000/photo-40216.jpg
 
http://www.postimg.com/41000/photo-40217.jpg
--------------------------------------------
   General

      Complete name : Godzilla.Vs.Mothra.1964.XviD-NvadR.avi
      Format : AVI
      Format/Info : Audio Video Interleave
      File size : 700 MiB
      Duration : 1h 28mn
      Overall bit rate : 1 105 Kbps
      Writing application : VirtualDubMod 1.5.10.2 (build 2542/release)
      Writing library : VirtualDubMod build 2542/release

   Video 

      Format : MPEG-4 Visual
      Format profile : AdvancedSimple@L5
      Format settings, BVOP : Yes
      Format settings, QPel : No
      Format settings, GMC : No warppoints
      Format settings, Matrix : Default (H.263)
      Muxing mode : Packed bitstream
      Codec ID : XVID
      Codec ID/Hint : XviD
      Duration : 1h 28mn
      Bit rate : 1 016 Kbps
      Width : 640 pixels
      Height : 272 pixels
      Display aspect ratio : 2.35:1
      Frame rate : 23.976 fps
      Resolution : 24 bits
      Colorimetry : 4:2:0
      Scan type : Progressive
      Bits/(Pixel*Frame) : 0.243
      Stream size : 644 MiB (92%)
      Writing library : XviD 1.2.1 (UTC 2008-12-04)

   Audio 

      Language : Japanese
      Subtitles : English (Hardcoded)
      Subs other: None
      Format : AC-3
      Format/Info : Audio Coding 3
      Codec ID : 2000
      Duration : 1h 28mn
      Bit rate mode : Constant
      Bit rate : 80.0 Kbps
      Channel(s) : 2 channels
      Channel positions : L R
      Sampling rate : 48.0 KHz
      Stream size : 50.7 MiB (7%)
      Alignment : Aligned on interleaves
      Interleave, duration : 42 ms (1.00 video frame)
      Interleave, preload duration : 512 ms
      
   Source

      Region 1 (US) DVD9 (NTSC) 720 x 480 29.970 fps 2.35:1
      Color AC3 Digital Dolby 2CH Stereo 192 Kb/s 48.0 KHz

   Note

      All black borders removed.  All Production Logo's Removed.
      File sized increased due to 6 channel soundtrack.
    
-------------- TORRENT STATS ------------- 
http://torrent-stats.info/00dd/13a8033.png